<?xml version="1.0" encoding="utf-8"?>
<!-- Generator: Adobe Illustrator 27.5.0, SVG Export Plug-In . SVG Version: 6.00 Build 0)  -->
<svg version="1.1"
	 id="Layer_1" shape-rendering="geometricPrecision" text-rendering="geometricPrecision" image-rendering="optimizeQuality"
	 xmlns="http://www.w3.org/2000/svg" xmlns:xlink="http://www.w3.org/1999/xlink" x="0px" y="0px" viewBox="0 0 3333 3333"
	 style="enable-background:new 0 0 3333 3333;" xml:space="preserve">
<style type="text/css">
	.st0{fill:#FFFFFF;}
</style>
<path class="st0" d="M1667,0c460,0,877,187,1179,488c302,302,488,718,488,1179c0,460-187,877-488,1179c-302,302-718,488-1179,488
	c-460,0-877-187-1179-488C186,2544,0,2128,0,1667c0-460,187-877,488-1179C790,186,1206,0,1667,0z M1848,1137h301V776h-301
	c-232,0-421,189-421,421v181h-241v361h241v963h361v-963h301l60-361h-361v-181C1788,1164,1816,1137,1848,1137z M2761,574
	c-280-280-666-453-1093-453S854,294,575,574c-280,280-453,666-453,1093s173,814,453,1093c280,280,666,453,1093,453s814-173,1093-453
	c280-280,453-666,453-1093S3041,853,2761,574z"/>
</svg>
