<svg xmlns="http://www.w3.org/2000/svg" width="997" height="294" viewBox="0 0 997 294"><path d="M73.63,5.22c28.9,0,47.76,19.38,47.76,45.84a63,63,0,0,1-2.51,17.3l-15,52.48c-3.64.16-7.24.44-10.71.8a160.43,160.43,0,0,0-17.67,2.72A115,115,0,0,0,63,127.75c-3,1-4.71,1.76-4.71,1.76s1.72.76,4.71,1.76a112.43,112.43,0,0,0,12.47,3.4,170.58,170.58,0,0,0,17.67,2.72c1.92.2,3.87.36,5.87.52L71.4,234.82c-34.85,0-55.12-28.29-45.25-63.18L73.63,5.22" fill="#fff"/><path d="M145,286.82c-34.89,0-55.15-28.3-45.24-63.19L124,138.15a175.13,175.13,0,0,0,27.38-3.48,104.23,104.23,0,0,0,12.47-3.4c3-1,4.75-1.76,4.75-1.76a47.16,47.16,0,0,0-4.75-1.76,106.44,106.44,0,0,0-12.47-3.39,165.24,165.24,0,0,0-22.54-3.2L141.86,75c28.89,0,47.76,19.42,47.76,45.92a64.2,64.2,0,0,1-2.52,17.27L145,286.82" fill="#fff"/><path d="M223.9,152h16.74v30.11h30.88V152h16.75v76.1H271.52V197.55H240.64V228.1H223.9Z" fill="#fff"/><path d="M294.81,211.36v-.22c0-12.72,9.67-18.59,23.48-18.59a41.54,41.54,0,0,1,14.25,2.39v-1c0-6.84-4.24-10.65-12.51-10.65a42.84,42.84,0,0,0-16.09,3.15l-4.13-12.61a51.38,51.38,0,0,1,22.61-4.67c9,0,15.55,2.39,19.68,6.52,4.35,4.35,6.31,10.76,6.31,18.59V228.1h-16v-6.3c-4,4.45-9.57,7.39-17.62,7.39C303.83,229.19,294.81,222.88,294.81,211.36Zm37.94-3.8v-2.94a25.49,25.49,0,0,0-10.54-2.18c-7.07,0-11.42,2.83-11.42,8.05v.22c0,4.45,3.7,7.07,9,7.07C327.53,217.78,332.75,213.53,332.75,207.56Z" fill="#fff"/><path d="M356.47,239.63l5.65-12.4a38,38,0,0,0,19.68,5.33c11.31,0,16.64-5.44,16.64-15.87v-2.83c-4.89,5.87-10.22,9.46-19,9.46-13.59,0-25.88-9.89-25.88-27.18v-.22c0-17.39,12.51-27.18,25.88-27.18,9,0,14.35,3.81,18.81,8.7v-7.61h16.53V215c0,10.43-2.51,18.05-7.4,22.94-5.43,5.43-13.8,7.83-25.11,7.83A55.34,55.34,0,0,1,356.47,239.63Zm42-43.49v-.22c0-7.93-6.2-13.48-14.25-13.48s-14.13,5.55-14.13,13.48v.22c0,8,6.09,13.48,14.13,13.48S398.44,204.08,398.44,196.14Z" fill="#fff"/><path d="M420.2,199.29v-.22c0-16.63,11.85-30.33,28.81-30.33,19.46,0,28.38,15.11,28.38,31.64,0,1.3-.11,2.83-.22,4.35H436.62c1.63,7.5,6.85,11.42,14.24,11.42,5.55,0,9.57-1.75,14.13-6l9.47,8.37c-5.44,6.75-13.27,10.88-23.82,10.88C433.14,229.41,420.2,217.12,420.2,199.29Zm41.1-4.89C460.32,187,456,182,449,182s-11.3,4.9-12.61,12.4Z" fill="#fff"/><path d="M480.34,199.29v-.22c0-16.63,11.85-30.33,28.81-30.33,19.46,0,28.38,15.11,28.38,31.64,0,1.3-.11,2.83-.22,4.35H496.75c1.63,7.5,6.85,11.42,14.25,11.42,5.54,0,9.56-1.75,14.13-6l9.46,8.37c-5.44,6.75-13.26,10.88-23.81,10.88C493.28,229.41,480.34,217.12,480.34,199.29Zm41.1-4.89c-1-7.4-5.33-12.4-12.29-12.4s-11.31,4.9-12.61,12.4Z" fill="#fff"/><path d="M546.67,152h8.7l27.73,41.53L610.82,152h8.7v76.1h-8.59V166.46l-27.72,40.77h-.44l-27.72-40.67V228.1h-8.38Z" fill="#fff"/><path d="M633.35,150.37h9.57v9.24h-9.57Zm.55,21.52h8.37V228.1H633.9Z" fill="#fff"/><path d="M655.21,171.89h8.37v9.79c3.69-6.09,9.57-11,19.24-11,13.6,0,21.53,9.13,21.53,22.5v34.9H696V195.27c0-10.44-5.65-17-15.55-17-9.67,0-16.85,7.06-16.85,17.61V228.1h-8.37Z" fill="#fff"/><path d="M715.89,150.37h9.57v9.24h-9.57Zm.55,21.52h8.37V228.1h-8.37Z" fill="#fff"/><path d="M733.07,220.93l4.24-6c6.09,4.56,12.83,7.17,19.46,7.17s11.64-3.47,11.64-8.91V213c0-5.65-6.63-7.83-14-9.89-8.81-2.5-18.59-5.55-18.59-15.88V187c0-9.67,8.05-16.09,19.14-16.09a38.49,38.49,0,0,1,20.22,6.2l-3.81,6.31c-5.22-3.37-11.2-5.44-16.63-5.44-6.64,0-10.87,3.48-10.87,8.15v.22c0,5.33,6.95,7.4,14.45,9.68,8.7,2.61,18.05,6,18.05,16.09v.22c0,10.65-8.8,16.85-20,16.85A38.67,38.67,0,0,1,733.07,220.93Z" fill="#fff"/><path d="M787.23,213.21V179.28H779.4v-7.39h7.83v-17h8.37v17h17.83v7.39H795.6v32.84c0,6.85,3.81,9.35,9.46,9.35a17.58,17.58,0,0,0,8.16-2v7.18a21.11,21.11,0,0,1-10.12,2.39C794.08,229.08,787.23,224.62,787.23,213.21Z" fill="#fff"/><path d="M821.71,171.89h8.36v14.68c4.14-9.35,12.29-16.09,22.95-15.66v9h-.65c-12.29,0-22.3,8.81-22.3,25.77V228.1h-8.36Z" fill="#fff"/><path d="M859.44,150.37H869v9.24h-9.57Zm.55,21.52h8.37V228.1H860Z" fill="#fff"/><path d="M877.82,200.16v-.22c0-16.2,11.41-29.24,27-29.24,16.64,0,26.2,13.26,26.2,29.68a23.75,23.75,0,0,1-.1,2.72H886.3c1.2,12.17,9.79,19,19.79,19,7.72,0,13.16-3.15,17.72-7.93l5.22,4.67c-5.65,6.31-12.5,10.55-23.16,10.55C890.43,229.41,877.82,217.56,877.82,200.16Zm44.69-3.26c-.88-10.22-6.75-19.13-17.94-19.13-9.79,0-17.18,8.15-18.27,19.13Z" fill="#fff"/><path d="M934.48,220.93l4.24-6c6.09,4.56,12.83,7.17,19.46,7.17s11.64-3.47,11.64-8.91V213c0-5.65-6.64-7.83-14-9.89-8.81-2.5-18.59-5.55-18.59-15.88V187c0-9.67,8-16.09,19.13-16.09a38.46,38.46,0,0,1,20.22,6.2l-3.8,6.31c-5.22-3.37-11.2-5.44-16.64-5.44-6.63,0-10.87,3.48-10.87,8.15v.22c0,5.33,7,7.4,14.46,9.68,8.7,2.61,18,6,18,16.09v.22c0,10.65-8.8,16.85-20,16.85A38.67,38.67,0,0,1,934.48,220.93Z" fill="#fff"/></svg>