<?xml version="1.0" encoding="utf-8"?>
<!-- Generator: Adobe Illustrator 27.5.0, SVG Export Plug-In . SVG Version: 6.00 Build 0)  -->
<svg version="1.1"
	 id="Layer_1" shape-rendering="geometricPrecision" text-rendering="geometricPrecision" image-rendering="optimizeQuality"
	 xmlns="http://www.w3.org/2000/svg" xmlns:xlink="http://www.w3.org/1999/xlink" x="0px" y="0px" viewBox="0 0 3333 3333"
	 style="enable-background:new 0 0 3333 3333;" xml:space="preserve">
<style type="text/css">
	.st0{fill-rule:evenodd;clip-rule:evenodd;fill:#FFFFFF;}
</style>
<path class="st0" d="M1662,1174c285,0,516,231,516,516s-231,516-516,516s-516-231-516-516S1377,1174,1662,1174z M1277,753h780
	c293,0,532,237,532,525v778c0,289-239,525-532,525h-780c-293,0-532-236-532-525v-778C745,989,985,753,1277,753z M2161,1102
	c46,0,84,37,84,84c0,46-37,84-84,84c-46,0-84-37-84-84C2077,1140,2114,1102,2161,1102z M1341,902h652c245,0,445,199,445,443v656
	c0,244-200,443-445,443h-652c-245,0-445-199-445-443v-656C896,1101,1096,902,1341,902z M1667,0c460,0,877,187,1179,488
	c302,302,488,718,488,1179c0,460-187,877-488,1179c-302,302-718,488-1179,488c-460,0-877-187-1179-488C186,2544,0,2128,0,1667
	c0-460,187-877,488-1179C790,186,1206,0,1667,0z M2760,573c-280-280-666-453-1093-453S853,293,574,573c-280,280-453,666-453,1093
	s173,814,453,1093c280,280,666,453,1093,453s814-173,1093-453c280-280,453-666,453-1093S3040,852,2760,573z M1662,1347
	c188,0,341,153,341,341s-153,341-341,341c-189,0-341-153-341-341S1474,1347,1662,1347z"/>
</svg>
