<?xml version="1.0" encoding="utf-8"?>
<!-- Generator: Adobe Illustrator 27.5.0, SVG Export Plug-In . SVG Version: 6.00 Build 0)  -->
<svg version="1.1"
	 id="Layer_1" shape-rendering="geometricPrecision" text-rendering="geometricPrecision" image-rendering="optimizeQuality"
	 xmlns="http://www.w3.org/2000/svg" xmlns:xlink="http://www.w3.org/1999/xlink" x="0px" y="0px" viewBox="0 0 3333 3333"
	 style="enable-background:new 0 0 3333 3333;" xml:space="preserve">
<style type="text/css">
	.st0{fill:#FFFFFF;}
</style>
<path class="st0" d="M1667,0c460,0,877,187,1179,488c302,302,488,718,488,1179c0,460-187,877-488,1179c-302,302-718,488-1179,488
	c-460,0-877-187-1179-488C186,2544,0,2128,0,1667c0-460,187-877,488-1179C790,186,1206,0,1667,0z M2534,1129c-64,29-132,47-204,56
	c74-44,130-114,157-197c-69,41-145,70-226,86c-65-69-157-112-260-112c-197,0-356,159-356,356c0,28,3,55,9,81
	c-296-15-558-157-733-372c-31,54-48,116-48,179c0,123,63,232,158,296c-58-2-113-18-161-44v4c0,172,123,316,286,349
	c-30,8-61,13-94,13c-23,0-45-2-67-6c46,141,177,244,332,247c-122,96-275,152-442,152c-29,0-57-2-85-5c158,101,345,160,546,160
	c654,0,1013-542,1013-1013c0-16,0-31-1-46c70-50,130-112,177-184H2534z M2760,574c-280-280-666-453-1093-453S853,294,574,574
	c-280,280-453,666-453,1093s173,814,453,1093c280,280,666,453,1093,453s814-173,1093-453c280-280,453-666,453-1093
	S3040,853,2760,574z"/>
</svg>
