<?xml version="1.0" encoding="utf-8"?>
<!-- Generator: Adobe Illustrator 27.5.0, SVG Export Plug-In . SVG Version: 6.00 Build 0)  -->
<svg version="1.1"
	 id="Layer_1" shape-rendering="geometricPrecision" text-rendering="geometricPrecision" image-rendering="optimizeQuality"
	 xmlns="http://www.w3.org/2000/svg" xmlns:xlink="http://www.w3.org/1999/xlink" x="0px" y="0px" viewBox="0 0 3333 3333"
	 style="enable-background:new 0 0 3333 3333;" xml:space="preserve">
<style type="text/css">
	.st0{fill-rule:evenodd;clip-rule:evenodd;fill:#FFFFFF;}
</style>
<path class="st0" d="M2547,1307c0,0-18-124-72-178c-68-72-145-72-180-76c-251-18-629-18-629-18h-1c0,0-377,0-629,18
	c-35,4-112,5-180,76c-54,54-71,178-71,178s-18,145-18,291v136c0,145,18,291,18,291s18,124,71,178c68,72,158,69,198,77
	c144,14,611,18,611,18s378-1,629-19c35-4,112-5,180-76c54-54,72-178,72-178s18-145,18-291v-136c0-145-18-291-18-291H2547z M1667,0
	c460,0,877,187,1179,488c302,302,488,718,488,1179c0,460-187,877-488,1179c-302,302-718,488-1179,488c-460,0-877-187-1179-488
	C186,2544,0,2128,0,1667c0-460,187-877,488-1179C790,186,1206,0,1667,0z M2760,573c-280-280-666-453-1093-453S853,293,574,573
	c-280,280-453,666-453,1093s173,814,453,1093c280,280,666,453,1093,453s814-173,1093-453c280-280,453-666,453-1093
	S3040,852,2760,573z M1480,1900v-505l486,253L1480,1900z"/>
</svg>
